PathFileType	4	(X/Y/Z)	c:/Users/goper/Files/vsCode/490R/osim_files/A05/A05_Slow_01.trc
DataRate	CameraRate	NumFrames	NumMarkers	Units                	OrigDataRate	OrigDataStartFrame	OrigNumFrames
250.00	250.00	10	36	mm	250.0	2759	3678
                Frame#	Time	LPSIS			LASIS			LTH1			LTH2			LTH3			LTH4			LLFE			LMFE			LSH1			LSH2			LSH3			LSH4			LLMAL			LMMAL			LCAL			LMTP5			LTOE			LMTP1			RPSIS			RASIS			RTH1			RTH2			RTH3			RTH4			RLFE			RMFE			RSH1			RSH2			RSH3			RSH4			RLMAL			RMMAL			RCAL			RMTP1			RTOE			RMTP5		
		X1	Y1	Z1	X2	Y2	Z2	X3	Y3	Z3	X4	Y4	Z4	X5	Y5	Z5	X6	Y6	Z6	X7	Y7	Z7	X8	Y8	Z8	X9	Y9	Z9	X10	Y10	Z10	X11	Y11	Z11	X12	Y12	Z12	X13	Y13	Z13	X14	Y14	Z14	X15	Y15	Z15	X16	Y16	Z16	X17	Y17	Z17	X18	Y18	Z18	X19	Y19	Z19	X20	Y20	Z20	X21	Y21	Z21	X22	Y22	Z22	X23	Y23	Z23	X24	Y24	Z24	X25	Y25	Z25	X26	Y26	Z26	X27	Y27	Z27	X28	Y28	Z28	X29	Y29	Z29	X30	Y30	Z30	X31	Y31	Z31	X32	Y32	Z32	X33	Y33	Z33	X34	Y34	Z34	X35	Y35	Z35	X36	Y36	Z36

2759	11.03200	-3197.68555	144.51958	327.02261	0.00000	0.00000	0.00000	0.00000	0.00000	0.00000	-2749.06665	652.22498	577.73120	-2802.45410	694.41486	597.16693	-2799.89722	651.56628	592.38788	-2786.33105	475.73273	559.90222	-2792.98438	478.16516	460.36935	-2794.54126	369.36871	553.03693	-2779.22437	327.48022	556.30737	-2737.00586	385.45520	564.36768	-2730.03857	342.61084	564.84991	-2709.51050	115.88242	549.44427	-2707.03589	121.07956	459.35486	0.00000	0.00000	0.00000	-2836.41064	47.35957	569.06042	-2885.54053	68.11163	506.42197	-2842.95166	63.87970	459.51514	0.00000	0.00000	0.00000	-2912.82788	982.47339	250.96049	0.00000	0.00000	0.00000	-3045.18115	609.42639	204.91960	0.00000	0.00000	0.00000	-3031.10913	654.58008	195.86537	-2988.09229	544.33990	190.40001	-3032.71899	530.72571	326.18192	-3066.71411	292.31714	187.88074	-3067.38965	243.21346	192.55222	0.00000	0.00000	0.00000	0.00000	0.00000	0.00000	0.00000	0.00000	0.00000	-3094.31274	162.96890	291.78247	0.00000	0.00000	0.00000	-3219.54907	108.11282	257.62628	-3236.87939	128.09077	200.05083	-3168.97974	85.58424	152.25366
2760	11.03600	-3208.54712	146.34720	327.51331	0.00000	0.00000	0.00000	0.00000	0.00000	0.00000	-2751.01685	652.47394	577.56940	-2804.64819	694.39612	597.17584	-2801.87549	651.54993	592.36871	-2787.85303	475.54114	560.23834	-2791.05347	476.51862	459.74146	-2795.51099	369.34064	553.08130	-2779.97021	327.47394	556.32581	-2738.00366	385.63754	564.30762	-2731.05835	342.88608	564.79602	-2709.67065	116.02759	549.47302	-2707.27686	121.36155	459.36606	0.00000	0.00000	0.00000	-2836.39819	47.30857	569.09692	-2885.60767	67.96325	506.44186	-2842.98267	63.82377	459.51059	0.00000	0.00000	0.00000	-2916.15332	981.65405	250.69102	0.00000	0.00000	0.00000	-3048.81860	608.81879	206.19661	0.00000	0.00000	0.00000	-3031.60107	652.41125	196.06137	0.00000	0.00000	0.00000	-3033.56714	529.36377	326.61725	-3073.68213	292.37784	188.47630	-3075.23340	243.30397	193.08997	0.00000	0.00000	0.00000	0.00000	0.00000	0.00000	0.00000	0.00000	0.00000	-3103.87280	163.57240	292.34296	-3023.58765	111.14396	354.31961	-3231.76587	113.67737	255.56718	-3247.08643	131.95369	200.46828	0.00000	0.00000	0.00000
2761	11.04000	-3219.14429	148.41881	328.15048	0.00000	0.00000	0.00000	0.00000	0.00000	0.00000	-2753.03271	652.50104	577.46057	-2806.74097	694.34137	597.13623	-2803.84863	651.48694	592.31256	-2789.25952	475.58682	560.22314	-2792.63867	476.52933	459.73581	-2796.60156	369.33014	553.11371	-2781.15527	328.04950	556.03381	-2739.13818	385.84229	564.26715	-2731.99585	343.08826	564.70599	-2709.79907	116.13203	549.46185	-2707.53271	121.58208	459.40308	0.00000	0.00000	0.00000	-2836.40039	47.23991	569.13245	-2885.64087	67.76501	506.43091	-2843.05762	63.76856	459.52216	0.00000	0.00000	0.00000	-2919.41431	980.80579	250.38730	0.00000	0.00000	0.00000	-3048.78442	606.46924	206.44843	0.00000	0.00000	0.00000	-3034.77173	651.56097	196.93060	-2992.37305	541.65167	191.25546	-3036.47437	528.37164	327.93762	-3080.68384	292.60455	189.14735	-3082.88599	243.48518	193.63062	0.00000	0.00000	0.00000	0.00000	0.00000	0.00000	0.00000	0.00000	0.00000	-3113.42407	164.18173	293.10098	-3033.08984	110.19693	355.16290	-3241.81812	116.49723	255.93790	-3257.42139	135.42108	201.45341	0.00000	0.00000	0.00000
2762	11.04400	-3229.46558	149.92224	328.05890	0.00000	0.00000	0.00000	0.00000	0.00000	0.00000	-2755.06543	652.77692	577.42188	-2808.80762	694.28687	597.05933	-2805.90698	651.49530	592.25824	-2790.74048	475.55411	560.20697	-2794.31396	476.46719	459.74701	-2797.71338	369.36035	553.15808	-2781.90112	327.62222	556.36035	-2740.30591	386.02951	564.15637	-2733.72070	343.44363	565.04950	-2709.95532	116.26965	549.47998	-2707.80200	121.83928	459.39621	0.00000	0.00000	0.00000	-2836.47168	47.22016	569.13269	-2885.69165	67.56287	506.41669	-2843.15210	63.70753	459.50644	0.00000	0.00000	0.00000	0.00000	0.00000	0.00000	0.00000	0.00000	0.00000	-3052.30957	605.86523	207.52393	0.00000	0.00000	0.00000	-3035.40015	649.41711	197.06903	-2994.52100	540.28198	191.68503	-3038.46582	527.28149	328.86359	-3087.45947	292.86859	189.80205	-3089.67871	243.55136	194.85681	0.00000	0.00000	0.00000	0.00000	0.00000	0.00000	0.00000	0.00000	0.00000	-3122.46631	165.00404	293.68826	0.00000	0.00000	0.00000	-3251.26514	119.06006	256.45117	-3267.17310	139.07999	202.28789	0.00000	0.00000	0.00000
2763	11.04800	-3239.76123	144.64099	319.29605	0.00000	0.00000	0.00000	0.00000	0.00000	0.00000	-2757.37598	652.92853	577.27008	-2810.93652	694.23743	596.97034	-2807.91382	651.47028	592.15820	-2792.22217	475.99255	559.83325	-2796.03442	476.51663	459.71289	-2798.83057	369.35748	553.18835	-2783.02637	327.73715	556.41907	-2741.34497	386.21558	564.07117	-2734.65283	343.70483	564.97821	-2710.24854	116.47537	549.46973	-2711.32642	123.86662	460.01291	0.00000	0.00000	0.00000	-2836.47070	47.14133	569.13531	-2885.78223	67.37660	506.38739	-2843.27344	63.65387	459.46411	0.00000	0.00000	0.00000	-2926.07227	979.02161	249.79747	0.00000	0.00000	0.00000	-3052.25879	603.47583	207.61479	0.00000	0.00000	0.00000	-3038.57520	648.60413	197.80952	-2996.81836	539.07745	192.11250	-3040.31934	526.09595	329.83240	-3093.77124	293.04575	190.42628	-3097.38770	243.98206	194.84010	0.00000	0.00000	0.00000	0.00000	0.00000	0.00000	0.00000	0.00000	0.00000	-3131.09644	165.85817	294.23431	-3058.52466	65.06163	298.40982	-3260.58618	121.91882	257.57291	-3276.52734	142.61537	203.19078	0.00000	0.00000	0.00000
2764	11.05200	0.00000	0.00000	0.00000	0.00000	0.00000	0.00000	0.00000	0.00000	0.00000	-2759.49292	653.07330	577.01660	-2813.25732	694.30383	596.85638	-2809.86426	651.40778	592.05524	-2793.78442	475.64685	560.15747	-2797.75195	476.46011	459.72159	-2800.06250	369.41788	553.22064	-2783.84961	327.76852	556.33466	-2742.70996	386.51392	563.99182	-2735.82983	344.02710	564.89575	-2710.59448	116.76057	549.46393	-2708.34619	122.33360	459.38754	0.00000	0.00000	0.00000	-2836.56494	47.13799	569.16095	-2886.35669	67.38336	506.42172	-2844.20117	64.10133	459.67465	-2747.37915	1023.10907	359.47122	-2929.50732	978.10687	249.49196	0.00000	0.00000	0.00000	-3055.85645	602.91870	208.46629	0.00000	0.00000	0.00000	-3039.05908	646.52924	197.77646	-2999.24414	537.92035	192.60576	-3042.19116	524.93896	330.87256	-3097.47314	291.69748	191.38451	-3104.18286	244.18530	195.50978	0.00000	0.00000	0.00000	0.00000	0.00000	0.00000	0.00000	0.00000	0.00000	-3138.99072	166.77515	294.58835	0.00000	0.00000	0.00000	-3269.38940	124.78922	258.52673	-3285.41699	146.09171	204.03383	0.00000	0.00000	0.00000
2765	11.05600	0.00000	0.00000	0.00000	0.00000	0.00000	0.00000	0.00000	0.00000	0.00000	-2761.62671	653.23145	576.85907	-2815.56958	694.39008	596.75684	-2811.99170	651.45526	592.00854	-2795.24170	475.97775	559.79395	-2802.80322	477.94098	460.29898	-2801.13281	369.40942	553.23877	-2784.94116	328.22052	556.04425	-2743.77783	386.74481	563.89764	-2736.08643	344.11295	564.39355	-2710.98804	117.06711	549.52277	-2708.65576	122.61830	459.42001	0.00000	0.00000	0.00000	-2836.61157	47.14046	569.13843	-2886.49854	67.21255	506.41074	-2843.48193	63.55111	459.37308	-2748.87451	1023.61053	357.30719	-2932.93433	977.20868	249.23064	0.00000	0.00000	0.00000	-3055.91895	600.77631	208.35295	0.00000	0.00000	0.00000	-3042.49341	645.98468	198.50444	-3001.76660	536.81311	193.18094	-3044.16431	523.90881	331.89221	-3105.72729	293.41904	191.73810	-3110.79419	244.42911	196.13173	0.00000	0.00000	0.00000	0.00000	0.00000	0.00000	0.00000	0.00000	0.00000	-3146.78857	167.64859	295.13202	-3078.54956	64.33317	299.95337	-3278.49097	127.62930	262.39331	-3293.82153	149.32010	204.98915	0.00000	0.00000	0.00000
2766	11.06000	0.00000	0.00000	0.00000	0.00000	0.00000	0.00000	0.00000	0.00000	0.00000	-2763.78101	653.38879	576.71973	-2817.84546	694.44666	596.64801	-2814.32593	651.57751	591.91962	-2796.79199	475.95129	559.78918	-2804.50635	477.94907	460.26440	-2802.46436	369.58798	553.29919	-2785.90601	327.99069	556.41541	-2745.07666	387.05103	563.77545	-2737.18994	344.37094	564.37653	-2711.35693	117.41906	549.52527	-2709.02783	122.96082	459.43866	0.00000	0.00000	0.00000	-2836.65771	47.15028	569.18103	-2886.64282	67.04086	506.40015	-2843.60742	63.55995	459.33228	-2752.15845	1023.12585	356.82626	-2936.27856	976.21924	248.90486	0.00000	0.00000	0.00000	-3057.95459	599.60406	208.56409	0.00000	0.00000	0.00000	-3042.99097	644.05164	198.34549	0.00000	0.00000	0.00000	-3046.36157	523.03613	332.93762	-3111.31934	293.47195	192.40509	-3117.00879	244.60001	196.79890	0.00000	0.00000	0.00000	0.00000	0.00000	0.00000	0.00000	0.00000	0.00000	-3154.39014	168.55914	295.77435	-3087.67236	63.98607	300.68280	-3286.71240	130.90631	263.43033	-3301.76953	152.34891	205.93748	0.00000	0.00000	0.00000
2767	11.06400	0.00000	0.00000	0.00000	0.00000	0.00000	0.00000	0.00000	0.00000	0.00000	-2765.94800	653.54608	576.57275	-2820.28442	694.52850	596.57654	-2816.61157	651.65759	591.83838	-2798.35986	476.02557	559.74695	-2806.28296	477.96085	460.30005	-2803.72778	369.65881	553.33838	-2787.12817	328.22452	556.47211	-2746.51929	387.41653	563.75427	-2738.96753	344.93103	564.64874	-2711.76050	117.84661	549.57288	-2709.37402	123.28635	459.48721	0.00000	0.00000	0.00000	-2836.76709	47.19911	569.20471	-2886.79175	66.87757	506.38077	-2844.56763	64.10174	459.59741	-2757.44092	1021.64734	357.83237	-2939.67700	975.32684	248.65201	0.00000	0.00000	0.00000	-3060.03442	598.59106	208.78775	0.00000	0.00000	0.00000	-3045.04199	642.97534	198.51508	0.00000	0.00000	0.00000	-3048.85913	522.39160	334.02023	-3116.68384	293.48123	193.09364	-3122.22485	244.38867	198.09045	0.00000	0.00000	0.00000	0.00000	0.00000	0.00000	0.00000	0.00000	0.00000	-3162.06055	169.45709	296.68137	-3096.55859	64.12643	301.99237	-3294.48828	133.93506	264.52148	-3309.27637	155.14996	206.93924	0.00000	0.00000	0.00000
2768	11.06800	0.00000	0.00000	0.00000	0.00000	0.00000	0.00000	0.00000	0.00000	0.00000	-2768.05298	653.81445	575.76373	-2822.79834	694.52289	596.51086	-2818.84790	651.72491	591.78461	-2800.21582	476.05783	559.98822	-2808.12207	478.05432	460.28629	-2804.91138	369.70831	553.34070	-2788.10156	328.28116	556.48816	-2747.66479	387.64648	563.65845	-2740.13696	345.25919	564.58191	-2712.04736	118.17698	549.60931	-2709.73755	123.63815	459.49887	-2626.34766	74.03903	497.84064	-2836.82642	47.20422	569.22522	-2886.33643	66.34581	506.17960	-2844.68872	64.08150	459.59058	-2760.80396	1021.15906	357.08206	-2943.13696	974.39429	248.38277	0.00000	0.00000	0.00000	-3062.44165	597.73810	208.90372	0.00000	0.00000	0.00000	-3048.64502	642.85614	199.09985	-3009.87549	533.55042	194.99101	-3050.72534	521.44574	334.75046	-3121.91650	293.40582	193.75284	-3128.09180	244.47017	198.78792	0.00000	0.00000	0.00000	0.00000	0.00000	0.00000	0.00000	0.00000	0.00000	-3168.25220	169.99377	297.12885	-3104.73633	64.07845	303.07852	-3301.37378	136.91493	265.82327	-3316.31274	157.60406	207.95259	0.00000	0.00000	0.00000
